<svg width="24" height="15" viewBox="0 0 24 15" fill="none" xmlns="http://www.w3.org/2000/svg">
<path d="M12 6C12.6172 6 13.1992 6.11719 13.7461 6.35156C14.293 6.58594 14.7695 6.91016 15.1758 7.32422C15.5898 7.73047 15.9141 8.20703 16.1484 8.75391C16.3828 9.30078 16.5 9.88281 16.5 10.5C16.5 11.125 16.3828 11.7109 16.1484 12.2578C15.9141 12.7969 15.5898 13.2734 15.1758 13.6875C14.7695 14.0938 14.293 14.4141 13.7461 14.6484C13.1992 14.8828 12.6172 15 12 15C11.375 15 10.7891 14.8828 10.2422 14.6484C9.70312 14.4141 9.22656 14.0938 8.8125 13.6875C8.40625 13.2734 8.08594 12.7969 7.85156 12.2578C7.61719 11.7109 7.5 11.125 7.5 10.5C7.5 9.88281 7.61719 9.30078 7.85156 8.75391C8.08594 8.20703 8.40625 7.73047 8.8125 7.32422C9.22656 6.91016 9.70312 6.58594 10.2422 6.35156C10.7891 6.11719 11.375 6 12 6ZM12 13.5C12.4141 13.5 12.8008 13.4219 13.1602 13.2656C13.5273 13.1094 13.8477 12.8945 14.1211 12.6211C14.3945 12.3477 14.6094 12.0312 14.7656 11.6719C14.9219 11.3047 15 10.9141 15 10.5C15 10.0859 14.9219 9.69922 14.7656 9.33984C14.6094 8.97266 14.3945 8.65234 14.1211 8.37891C13.8477 8.10547 13.5273 7.89062 13.1602 7.73438C12.8008 7.57812 12.4141 7.5 12 7.5C11.5859 7.5 11.1953 7.57812 10.8281 7.73438C10.4688 7.89062 10.1523 8.10547 9.87891 8.37891C9.60547 8.65234 9.39062 8.97266 9.23438 9.33984C9.07812 9.69922 9 10.0859 9 10.5C9 10.9141 9.07812 11.3047 9.23438 11.6719C9.39062 12.0312 9.60547 12.3477 9.87891 12.6211C10.1523 12.8945 10.4688 13.1094 10.8281 13.2656C11.1953 13.4219 11.5859 13.5 12 13.5ZM12 0C13.1172 0 14.2266 0.140625 15.3281 0.421875C16.4297 0.695312 17.4688 1.10156 18.4453 1.64062C19.4219 2.17969 20.3047 2.84766 21.0938 3.64453C21.8906 4.43359 22.5391 5.34375 23.0391 6.375C23.3516 7.02344 23.5898 7.69531 23.7539 8.39062C23.918 9.07812 24 9.78125 24 10.5H22.5C22.5 9.57812 22.3594 8.71484 22.0781 7.91016C21.7969 7.10547 21.4062 6.37109 20.9062 5.70703C20.4141 5.04297 19.832 4.44922 19.1602 3.92578C18.4883 3.40234 17.7617 2.96094 16.9805 2.60156C16.207 2.24219 15.3945 1.96875 14.543 1.78125C13.6914 1.59375 12.8438 1.5 12 1.5C11.1562 1.5 10.3086 1.59375 9.45703 1.78125C8.60547 1.96875 7.78906 2.24219 7.00781 2.60156C6.23438 2.96094 5.51172 3.40234 4.83984 3.92578C4.16797 4.44922 3.58203 5.04297 3.08203 5.70703C2.58984 6.37109 2.20312 7.10547 1.92188 7.91016C1.64062 8.71484 1.5 9.57812 1.5 10.5H0C0 9.78125 0.0820312 9.07812 0.246094 8.39062C0.410156 7.69531 0.648438 7.02344 0.960938 6.375C1.46094 5.34375 2.10547 4.43359 2.89453 3.64453C3.69141 2.84766 4.57812 2.17969 5.55469 1.64062C6.53125 1.10156 7.57031 0.695312 8.67188 0.421875C9.77344 0.140625 10.8828 0 12 0Z" fill="#444444"/>
</svg>
