<svg width="147" height="116" viewBox="0 0 147 116" fill="none" xmlns="http://www.w3.org/2000/svg">
<path fill-rule="evenodd" clip-rule="evenodd" d="M76.95 10.65C76.25 10.75 75.6 10.7 75 10.5C74.4 10.3 73.85 9.99995 73.35 9.6C72.95 9.2 72.6 8.75 72.3 8.25C72.1 7.64999 72 6.99998 72 6.29998C72 5.39998 72.2 4.59999 72.6 3.89999C73.1 3.09999 73.85 2.39998 74.85 1.79998C75.45 1.39998 76.05 1.09999 76.65 0.899994C77.35 0.599992 78.05 0.349994 78.75 0.149994H79.65C80.05 0.0499952 80.4 0 80.7 0C81.4 0 82 0.0999872 82.5 0.299988C83 0.399986 83.4 0.649987 83.7 1.04998C84 1.34998 84.25 1.74999 84.45 2.25C84.65 2.64999 84.75 3.14999 84.75 3.75C84.75 4.65 84.55 5.49998 84.15 6.29998C83.75 7.09999 83.15 7.85 82.35 8.55C81.55 9.25 80.7 9.79999 79.8 10.2C78.9 10.6 77.95 10.8 76.95 10.8V10.65ZM105.429 40.3498C106.629 40.2498 107.879 40.0998 109.179 39.8998V40.0498C107.479 45.3498 105.979 50.2998 104.679 54.8998C103.887 57.704 103.187 60.3967 102.58 62.978C102.068 63.5564 101.445 64.3137 100.709 65.2498C99.609 66.5498 98.459 67.6498 97.259 68.5498C96.159 69.3498 94.9086 69.9498 93.5086 70.3498C93.5086 68.5498 93.3086 66.9498 92.9086 65.5498C92.6086 64.0498 92.1586 62.7998 91.5586 61.7998C90.8586 60.6998 90.1086 59.8998 89.3086 59.3998C88.5086 58.8998 87.5586 58.6498 86.4586 58.6498H85.8586H85.2586C85.0586 58.7498 84.8586 58.7998 84.6586 58.7998H84.0586C83.9586 58.8998 83.8586 58.9498 83.7586 58.9498C83.5586 58.4498 83.3086 58.0498 83.0086 57.7498C82.7086 57.4498 82.3586 57.1998 81.9586 56.9998C81.5586 56.7998 81.1586 56.6498 80.7586 56.5498C80.3586 56.3498 79.9086 56.2498 79.4086 56.2498C78.7086 56.2498 77.9586 56.3998 77.1586 56.6998C76.4586 56.9998 75.7086 57.4498 74.9086 58.0498C74.2086 58.6498 73.4586 59.3998 72.6586 60.2998C71.9586 61.1998 71.2086 62.2498 70.4086 63.4498C69.1086 65.5498 67.9586 67.6998 66.9586 69.8998C65.8586 72.0998 64.9586 74.3498 64.2586 76.6498C63.4586 78.9498 62.8586 81.0998 62.4586 83.0998C62.0586 84.9998 61.8586 86.7998 61.8586 88.4998C61.8586 90.3998 62.1086 92.0998 62.6086 93.5998C63.0086 94.9998 63.7086 96.2 64.7086 97.2C65.7086 98.3 66.8086 99.1 68.0086 99.6C69.3086 100.1 70.7586 100.35 72.3586 100.35C74.6586 100.35 76.7586 99.85 78.6586 98.85C80.6586 97.95 82.5086 96.6 84.2086 94.7998C85.9086 92.7998 87.4586 90.3498 88.8586 87.4498C90.2586 84.4498 91.5086 81.0998 92.6086 77.3998C93.7086 77.1998 94.7586 76.8498 95.759 76.3498C96.859 75.8498 97.909 75.1998 98.909 74.3998C99.4335 73.9802 99.9442 73.5332 100.441 73.0586C100.081 74.9858 99.7941 76.7829 99.579 78.4498C99.079 81.4498 98.829 84.0498 98.829 86.2498C98.829 88.0498 99.029 89.6498 99.429 91.0498C99.729 92.4498 100.229 93.6998 100.929 94.7998C101.629 95.8 102.429 96.5 103.329 96.9C104.229 97.4 105.279 97.65 106.479 97.65C107.579 97.65 108.629 97.5 109.629 97.2C110.629 97 111.629 96.7 112.629 96.3C113.629 95.8 114.579 95.15 115.479 94.3498C116.379 93.4498 117.229 92.4498 118.029 91.3498C119.329 89.6498 120.529 87.8998 121.629 86.0998C122.729 84.2998 123.729 82.4998 124.629 80.6998C125.529 78.8998 126.179 77.3998 126.579 76.1998C127.079 74.9998 127.329 74.1998 127.329 73.7998C127.329 73.3998 127.229 73.0498 127.029 72.7498C126.929 72.3498 126.679 71.9998 126.279 71.6998C125.879 71.4998 125.479 71.3498 125.079 71.2498C124.779 71.0498 124.379 70.9498 123.879 70.9498C123.679 70.9498 123.329 71.2998 122.829 71.9998C122.429 72.6998 121.929 73.7498 121.329 75.1498C120.729 76.5498 120.129 77.8998 119.529 79.1998C118.929 80.4998 118.329 81.6998 117.729 82.7998C116.829 84.2998 115.929 85.6498 115.029 86.8498C114.229 87.9498 113.429 88.8998 112.629 89.6998C111.829 90.3998 111.079 90.9998 110.379 91.4998C109.679 91.8998 109.029 92.0998 108.429 92.0998C108.029 92.0998 107.629 91.9998 107.229 91.7998C106.929 91.5998 106.679 91.2998 106.479 90.8998C106.279 90.4998 106.079 90.0498 105.879 89.5498C105.779 88.9498 105.729 88.2998 105.729 87.5998C105.729 85.5998 106.029 82.9998 106.629 79.7998C107.229 76.4998 108.129 72.5998 109.329 68.0998C110.429 63.5998 111.779 58.9498 113.379 54.1498C114.979 49.2498 116.729 44.1998 118.629 38.9998C120.029 38.7998 121.729 38.6498 123.729 38.5498C125.829 38.3498 128.229 38.1498 130.929 37.9498C133.529 37.7498 135.779 37.5998 137.679 37.4998C139.679 37.2998 141.229 37.1998 142.329 37.1998H144.729C145.429 37.0998 145.879 36.9998 146.079 36.8998C146.379 36.6998 146.579 36.5498 146.679 36.4498C146.879 36.2498 146.979 35.9998 146.979 35.6998C146.979 34.8998 146.729 34.1998 146.229 33.5998C145.829 32.9998 145.179 32.4998 144.279 32.0998C143.279 31.7998 141.979 31.5498 140.379 31.3498C138.779 31.1498 136.829 31.0498 134.529 31.0498H133.179H131.679C131.079 31.1498 130.529 31.1998 130.029 31.1998H128.379C127.279 31.2998 126.129 31.3998 124.929 31.4998C123.729 31.4998 122.479 31.5498 121.179 31.6498C121.479 30.6498 121.779 29.6998 122.079 28.7998C122.379 27.7998 122.729 26.8498 123.129 25.9498C123.629 25.0498 123.929 24.3998 124.029 23.9998L124.329 23.2498C124.329 22.7498 124.229 22.3498 124.029 22.0498C123.929 21.7498 123.629 21.4498 123.129 21.1498C122.729 20.8498 122.229 20.6498 121.629 20.5498C121.129 20.4498 120.579 20.3998 119.979 20.3998C119.179 20.3998 118.429 20.5498 117.729 20.8498C117.129 21.1498 116.579 21.6498 116.079 22.3498C115.679 23.0498 115.129 24.1998 114.429 25.7998C113.729 27.3998 112.979 29.4998 112.179 32.0998C107.479 32.4998 103.679 32.8998 100.779 33.2998C97.879 33.5998 95.829 33.8498 94.6289 34.0498C93.4289 34.3498 92.5289 34.7498 91.9289 35.2498C91.2289 35.6498 90.8789 36.1498 90.8789 36.7498C90.8789 37.3498 91.0289 37.8998 91.3289 38.3998C91.6289 38.7998 92.0789 39.1998 92.6789 39.5998C93.1789 39.8998 93.8289 40.1498 94.6289 40.3498C95.429 40.4498 96.379 40.4998 97.479 40.4998H99.429C100.229 40.4998 101.179 40.4498 102.279 40.3498H105.429ZM13.8 46.65C13.1 46.75 12.45 46.7 11.85 46.5C11.25 46.3 10.7 46 10.2 45.6C9.8 45.2 9.45 44.75 9.15 44.25C8.95 43.65 8.85 43 8.85 42.3C8.85 41.4 9.05 40.6 9.45 39.9C9.95 39.1 10.7 38.4 11.7 37.8C12.3 37.4 12.9 37.1 13.5 36.9C14.2 36.6 14.9 36.35 15.6 36.15H16.5C16.9 36.05 17.25 36 17.55 36C18.25 36 18.85 36.1 19.35 36.3C19.85 36.4 20.25 36.65 20.55 37.05C20.85 37.35 21.1 37.75 21.3 38.25C21.5 38.65 21.6 39.15 21.6 39.75C21.6 40.65 21.4 41.5 21 42.3C20.6 43.1 20 43.85 19.2 44.55C18.4 45.25 17.55 45.8 16.65 46.2C15.75 46.6 14.8 46.8 13.8 46.8V46.65ZM8.1 92.5502C6.8 92.5502 5.65 92.3002 4.65 91.8002C3.75 91.3002 2.95 90.5502 2.25 89.55C1.45 88.45 0.899999 87.15 0.599999 85.65C0.2 84.15 0 82.45 0 80.55C0 78.35 0.2 76 0.599999 73.5C0.899999 70.9 1.4 68.2 2.1 65.4C2.5 64 2.9 62.7 3.3 61.5C3.6 60.3 3.9 59.2 4.2 58.2C4.5 57.2 4.8 56.35 5.1 55.65C5.5 54.85 5.9 54.2 6.3 53.7C6.6 53.2 6.95 52.8 7.35 52.5C7.85 52.1 8.4 51.75 9 51.45C9.7 51.15 10.4 50.95 11.1 50.85C11.8 50.75 12.55 50.7 13.35 50.7C13.75 50.7 14.1 50.75 14.4 50.85C14.8 50.95 15.1 51.1 15.3 51.3C15.6 51.4 15.8 51.6 15.9 51.9C16.1 52.2 16.2 52.6 16.2 53.1C16.2 53.2 16.1 53.55 15.9 54.15C15.7 54.65 15.45 55.3 15.15 56.1C14.85 56.7 14.6 57.25 14.4 57.75C14.3 58.25 14.15 58.7 13.95 59.1L13.05 61.65C10.95 67.45 9.4 72.15 8.4 75.75C7.4 79.25 6.9 81.7 6.9 83.1C6.9 83.7 6.95 84.2 7.05 84.6C7.15 85 7.3 85.35 7.5 85.65C7.7 85.95 7.95 86.15 8.25 86.25C8.65 86.35 9.05 86.4 9.45 86.4C10.05 86.4 10.8 86.1 11.7 85.5C12.6 84.9 13.65 84 14.85 82.8C16.05 81.6 17.25 80.2 18.45 78.6C19.65 76.9 20.85 75.1 22.05 73.2C22.25 73 22.4 72.7 22.5 72.3C22.7 71.9 22.95 71.45 23.25 70.95C23.65 70.15 24 69.55 24.3 69.15C24.6 68.75 24.9 68.55 25.2 68.55C25.5 68.55 25.8 68.65 26.1 68.85C26.4 68.95 26.7 69.1 27 69.3C27.3 69.6 27.5 69.95 27.6 70.35C27.8 70.65 27.9 71 27.9 71.4C27.9 71.5 27.65 72 27.15 72.9C26.75 73.7 26.15 74.8 25.35 76.2C24.95 76.9 24.55 77.55 24.15 78.15C23.75 78.65 23.45 79.1 23.25 79.5C21.95 82 20.6 84.1 19.2 85.8C17.9 87.5 16.7 88.85 15.6 89.85C14.4 90.8502 13.2 91.5502 12 91.9502C10.8 92.3502 9.5 92.5502 8.1 92.5502ZM70.2587 89.316C70.2614 90.0885 70.3114 90.7664 70.4086 91.3498C70.5086 91.9498 70.7086 92.4498 71.0086 92.8498C71.2086 93.2498 71.5086 93.5498 71.9086 93.7498C72.3086 93.8498 72.8086 93.8998 73.4086 93.8998C74.7086 93.8998 76.0086 93.1998 77.3086 91.7998C78.7086 90.2998 80.2086 88.1498 81.8086 85.3498C83.3086 82.4498 84.4086 79.6498 85.1086 76.9498C85.9086 74.2498 86.3086 71.5498 86.3086 68.8498C86.3086 68.2498 86.2086 67.6998 86.0086 67.1998C85.9086 66.6998 85.7586 66.2498 85.5586 65.8498C85.2586 65.4498 84.9586 65.1998 84.6586 65.0998C84.3586 64.8998 83.9586 64.7998 83.4586 64.7998C82.2586 64.7998 80.9586 65.4998 79.5586 66.8998C78.1586 68.1998 76.6586 70.2998 75.0586 73.1998C73.4586 75.9998 72.2586 78.7498 71.4586 81.4498C70.6672 84.1208 70.2672 86.7429 70.2587 89.316ZM76.4136 14.2667C78.6598 14.9663 80.1789 16.3933 79.8067 17.4541L66.7765 54.5875C66.4936 55.3937 65.459 55.0166 63.9926 54.482L63.9925 54.482C63.5296 54.3133 63.0237 54.1288 62.4848 53.961C61.9459 53.7932 61.4229 53.6572 60.9445 53.5327C59.4288 53.1385 58.3595 52.8604 58.6424 52.0541L71.6726 14.9207C72.0448 13.8599 74.1674 13.5671 76.4136 14.2667ZM82.7909 21.8067C83.0199 21.1539 82.8415 20.5113 82.3922 20.3713C81.943 20.2314 81.3931 20.6472 81.1641 21.3L73.1455 44.1513C72.9714 44.6475 73.1925 44.6825 73.5058 44.7322C73.6048 44.7479 73.7129 44.7651 73.8206 44.7986C73.9284 44.8322 74.0261 44.8791 74.1154 44.9221C74.3985 45.0581 74.5982 45.1541 74.7723 44.658L82.7909 21.8067ZM46.3764 88.7179L45.0671 103.584L53.4207 90.9118L46.3764 88.7179ZM58.1205 53.5415L66.2546 56.0748L54.4443 89.7319L46.3101 87.1986L58.1205 53.5415ZM39.9734 106.052C34.8196 109.427 28.1972 113.763 20.5 103.5C16.8496 98.6328 17.06 95.1457 17.1983 92.854C17.2594 91.8412 17.3065 91.0619 17 90.5L9.5 94C12.5 110 27 127 45 103.5C43.5319 103.722 41.85 104.824 39.9734 106.052Z" fill="url(#paint0_linear)"/>
<defs>
<linearGradient id="paint0_linear" x1="109" y1="45.5" x2="14" y2="98.5" gradientUnits="userSpaceOnUse">
<stop stop-color="#ffffff14"/>
<stop offset="1" stop-color="#ffffff14"/>
</linearGradient>
</defs>
</svg>
