<svg width="154" height="177" viewBox="0 0 154 177" fill="none" xmlns="http://www.w3.org/2000/svg">
<path d="M137.168 0L0 37.5521C6.81828 65.5149 38.3027 60.1712 10.8289 128.687C-0.136307 156.033 4.01062 170.851 10.8289 177H150.002C142.783 170.558 137.97 151.877 137.168 128.687C136.366 105.497 146.467 94.9835 150.002 81.4727C159.828 43.9206 150.002 17.129 137.168 0Z" fill="#F6E5EB"/>
<path d="M65.5327 71.2802C69.1196 84.2165 62.7989 96.8959 51.924 99.9112C41.0491 102.926 29.1017 95.3123 25.5148 82.3759C21.928 69.4396 28.2486 56.7602 39.1235 53.7449C49.9984 50.7296 61.9459 58.3438 65.5327 71.2802Z" fill="white" stroke="#410E61" stroke-width="3"/>
<path d="M128.396 61.1363C131.983 74.0726 125.662 86.752 114.788 89.7673C103.913 92.7826 91.9652 85.1684 88.3783 72.232C84.7915 59.2957 91.1121 46.6163 101.987 43.601C112.862 40.5857 124.809 48.1999 128.396 61.1363Z" fill="white" stroke="#410E61" stroke-width="3"/>
<ellipse cx="45.4917" cy="86.2402" rx="12.1315" ry="13.0599" transform="rotate(-15.4971 45.4917 86.2402)" fill="#410E61"/>
<ellipse cx="46.8411" cy="91.7571" rx="5.0512" ry="3.24513" transform="rotate(-15.4971 46.8411 91.7571)" fill="white"/>
<ellipse cx="39.2576" cy="82.3803" rx="2.78273" ry="3.24513" transform="rotate(-15.4971 39.2576 82.3803)" fill="white"/>
<ellipse cx="50.9911" cy="83.9546" rx="2.05352" ry="1.81371" transform="rotate(-15.4971 50.9911 83.9546)" fill="white"/>
<ellipse cx="109.929" cy="75.4216" rx="12.1315" ry="13.0599" transform="rotate(-15.4971 109.929 75.4216)" fill="#410E61"/>
<ellipse cx="111.279" cy="80.9385" rx="5.0512" ry="3.24513" transform="rotate(-15.4971 111.279 80.9385)" fill="white"/>
<ellipse cx="103.695" cy="71.5617" rx="2.78273" ry="3.24513" transform="rotate(-15.4971 103.695 71.5617)" fill="white"/>
<ellipse cx="115.429" cy="73.136" rx="2.05352" ry="1.81371" transform="rotate(-15.4971 115.429 73.136)" fill="white"/>
<rect x="2" y="60.0401" width="55.2076" height="14.8807" transform="rotate(-23.5295 2 60.0401)" fill="#410E61"/>
<rect x="88.5836" y="31" width="58.566" height="14.8807" transform="rotate(13.9349 88.5836 31)" fill="#410E61"/>
<path d="M42 142C45.3126 137.791 47.7938 128.942 67.2177 127.216C86.6416 125.489 96.4992 137.252 100 142" stroke="#410E61" stroke-width="9"/>
</svg>
